<mxfile host="Electron" agent="Mozilla/5.0 (Windows NT 10.0; Win64; x64) AppleWebKit/537.36 (KHTML, like Gecko) draw.io/25.0.2 Chrome/128.0.6613.186 Electron/32.2.5 Safari/537.36" version="25.0.2">
  <diagram name="Page-1" id="-C00xVS-Ebd1dBzjBXw8">
    <mxGraphModel dx="1050" dy="725" grid="1" gridSize="10" guides="1" tooltips="1" connect="1" arrows="1" fold="1" page="1" pageScale="1" pageWidth="827" pageHeight="1169" math="0" shadow="0">
      <root>
        <mxCell id="0" />
        <mxCell id="1" parent="0" />
        <mxCell id="khj1jPKUxJD5TkWwg72f-1" value="Достижение консенсуса" style="rounded=0;whiteSpace=wrap;html=1;" vertex="1" parent="1">
          <mxGeometry x="303" y="240" width="221" height="90" as="geometry" />
        </mxCell>
        <mxCell id="khj1jPKUxJD5TkWwg72f-2" value="A0" style="text;html=1;align=center;verticalAlign=middle;whiteSpace=wrap;rounded=0;" vertex="1" parent="1">
          <mxGeometry x="470" y="300" width="60" height="30" as="geometry" />
        </mxCell>
        <mxCell id="khj1jPKUxJD5TkWwg72f-4" value="" style="endArrow=classic;html=1;rounded=0;entryX=0;entryY=0.25;entryDx=0;entryDy=0;" edge="1" parent="1" target="khj1jPKUxJD5TkWwg72f-1">
          <mxGeometry width="50" height="50" relative="1" as="geometry">
            <mxPoint x="130" y="263" as="sourcePoint" />
            <mxPoint x="440" y="350" as="targetPoint" />
          </mxGeometry>
        </mxCell>
        <mxCell id="khj1jPKUxJD5TkWwg72f-5" value="Игровые события от участников" style="text;whiteSpace=wrap;html=1;" vertex="1" parent="1">
          <mxGeometry x="111" y="236" width="210" height="40" as="geometry" />
        </mxCell>
        <mxCell id="khj1jPKUxJD5TkWwg72f-10" value="" style="endArrow=classic;html=1;rounded=0;entryX=0;entryY=0.75;entryDx=0;entryDy=0;" edge="1" parent="1" target="khj1jPKUxJD5TkWwg72f-1">
          <mxGeometry width="50" height="50" relative="1" as="geometry">
            <mxPoint x="130" y="308" as="sourcePoint" />
            <mxPoint x="440" y="350" as="targetPoint" />
          </mxGeometry>
        </mxCell>
        <mxCell id="khj1jPKUxJD5TkWwg72f-11" value="Сетевые данные" style="text;whiteSpace=wrap;html=1;" vertex="1" parent="1">
          <mxGeometry x="194" y="282" width="130" height="40" as="geometry" />
        </mxCell>
        <mxCell id="khj1jPKUxJD5TkWwg72f-12" value="" style="endArrow=classic;html=1;rounded=0;entryX=0;entryY=0.75;entryDx=0;entryDy=0;" edge="1" parent="1">
          <mxGeometry width="50" height="50" relative="1" as="geometry">
            <mxPoint x="524" y="282" as="sourcePoint" />
            <mxPoint x="697" y="282" as="targetPoint" />
          </mxGeometry>
        </mxCell>
        <mxCell id="khj1jPKUxJD5TkWwg72f-13" value="Согласованное состояние игрового мира" style="text;whiteSpace=wrap;html=1;" vertex="1" parent="1">
          <mxGeometry x="530" y="240" width="162" height="40" as="geometry" />
        </mxCell>
        <mxCell id="khj1jPKUxJD5TkWwg72f-14" value="" style="endArrow=classic;html=1;rounded=0;entryX=0.167;entryY=-0.028;entryDx=0;entryDy=0;entryPerimeter=0;" edge="1" parent="1">
          <mxGeometry width="50" height="50" relative="1" as="geometry">
            <mxPoint x="340" y="142.52" as="sourcePoint" />
            <mxPoint x="339.9069999999999" y="240.00000000000003" as="targetPoint" />
          </mxGeometry>
        </mxCell>
        <mxCell id="khj1jPKUxJD5TkWwg72f-15" value="Алгоритмы консенсуса" style="text;whiteSpace=wrap;html=1;" vertex="1" parent="1">
          <mxGeometry x="266" y="136" width="90" height="40" as="geometry" />
        </mxCell>
        <mxCell id="khj1jPKUxJD5TkWwg72f-16" value="" style="endArrow=classic;html=1;rounded=0;entryX=0.167;entryY=-0.028;entryDx=0;entryDy=0;entryPerimeter=0;" edge="1" parent="1">
          <mxGeometry width="50" height="50" relative="1" as="geometry">
            <mxPoint x="412.5" y="143" as="sourcePoint" />
            <mxPoint x="412.5" y="240" as="targetPoint" />
          </mxGeometry>
        </mxCell>
        <mxCell id="khj1jPKUxJD5TkWwg72f-17" value="Правила игровой логики" style="text;whiteSpace=wrap;html=1;" vertex="1" parent="1">
          <mxGeometry x="357" y="135" width="70" height="40" as="geometry" />
        </mxCell>
        <mxCell id="khj1jPKUxJD5TkWwg72f-18" value="" style="endArrow=classic;html=1;rounded=0;entryX=0.167;entryY=-0.028;entryDx=0;entryDy=0;entryPerimeter=0;" edge="1" parent="1">
          <mxGeometry width="50" height="50" relative="1" as="geometry">
            <mxPoint x="460" y="143" as="sourcePoint" />
            <mxPoint x="460" y="240" as="targetPoint" />
          </mxGeometry>
        </mxCell>
        <mxCell id="khj1jPKUxJD5TkWwg72f-19" value="Ограничения производительности" style="text;whiteSpace=wrap;html=1;" vertex="1" parent="1">
          <mxGeometry x="470" y="136" width="140" height="40" as="geometry" />
        </mxCell>
        <mxCell id="khj1jPKUxJD5TkWwg72f-20" value="" style="endArrow=classic;html=1;rounded=0;entryX=0.25;entryY=1;entryDx=0;entryDy=0;" edge="1" parent="1">
          <mxGeometry width="50" height="50" relative="1" as="geometry">
            <mxPoint x="340" y="440" as="sourcePoint" />
            <mxPoint x="340.25" y="330" as="targetPoint" />
          </mxGeometry>
        </mxCell>
        <mxCell id="khj1jPKUxJD5TkWwg72f-21" value="Игровые серверы" style="text;whiteSpace=wrap;html=1;" vertex="1" parent="1">
          <mxGeometry x="276" y="394" width="70" height="40" as="geometry" />
        </mxCell>
        <mxCell id="khj1jPKUxJD5TkWwg72f-22" value="" style="endArrow=classic;html=1;rounded=0;entryX=0.25;entryY=1;entryDx=0;entryDy=0;" edge="1" parent="1">
          <mxGeometry width="50" height="50" relative="1" as="geometry">
            <mxPoint x="420" y="440" as="sourcePoint" />
            <mxPoint x="420.25" y="330" as="targetPoint" />
          </mxGeometry>
        </mxCell>
        <mxCell id="khj1jPKUxJD5TkWwg72f-23" value="Сетевая инфраструктура" style="text;whiteSpace=wrap;html=1;" vertex="1" parent="1">
          <mxGeometry x="470" y="394" width="90" height="40" as="geometry" />
        </mxCell>
        <mxCell id="khj1jPKUxJD5TkWwg72f-24" value="" style="endArrow=classic;html=1;rounded=0;entryX=0.25;entryY=1;entryDx=0;entryDy=0;" edge="1" parent="1">
          <mxGeometry width="50" height="50" relative="1" as="geometry">
            <mxPoint x="460" y="440" as="sourcePoint" />
            <mxPoint x="460.25" y="330" as="targetPoint" />
          </mxGeometry>
        </mxCell>
        <mxCell id="khj1jPKUxJD5TkWwg72f-25" value="Анти-чит системы" style="text;whiteSpace=wrap;html=1;" vertex="1" parent="1">
          <mxGeometry x="360" y="394" width="80" height="40" as="geometry" />
        </mxCell>
      </root>
    </mxGraphModel>
  </diagram>
</mxfile>
